<?xml version="1.0" encoding="UTF-8" standalone="no"?>
<!-- Created with Inkscape (http://www.inkscape.org/) -->

<svg
   width="210.97351"
   height="201.99118"
   viewBox="0 0 55.820073 53.4435"
   version="1.1"
   id="svg5"
   inkscape:version="1.2.2 (732a01da63, 2022-12-09, custom)"
   sodipodi:docname="logowhite.svg"
   xmlns:inkscape="http://www.inkscape.org/namespaces/inkscape"
   xmlns:sodipodi="http://sodipodi.sourceforge.net/DTD/sodipodi-0.dtd"
   xmlns="http://www.w3.org/2000/svg"
   xmlns:svg="http://www.w3.org/2000/svg">
  <sodipodi:namedview
     id="namedview7"
     pagecolor="#ffffff"
     bordercolor="#999999"
     borderopacity="1"
     inkscape:showpageshadow="0"
     inkscape:pageopacity="0"
     inkscape:pagecheckerboard="0"
     inkscape:deskcolor="#d1d1d1"
     inkscape:document-units="mm"
     showgrid="false"
     inkscape:zoom="0.87891426"
     inkscape:cx="57.457254"
     inkscape:cy="174.6473"
     inkscape:window-width="1294"
     inkscape:window-height="704"
     inkscape:window-x="72"
     inkscape:window-y="27"
     inkscape:window-maximized="1"
     inkscape:current-layer="g3251" />
  <defs
     id="defs2">
    <rect
       x="-10.901381"
       y="-48.8949"
       width="20.063922"
       height="71.84812"
       id="rect501" />
    <inkscape:path-effect
       effect="spiro"
       id="path-effect3762"
       is_visible="true"
       lpeversion="1" />
    <inkscape:path-effect
       effect="spiro"
       id="path-effect3744"
       is_visible="true"
       lpeversion="1" />
    <inkscape:path-effect
       effect="spiro"
       id="path-effect3613"
       is_visible="true"
       lpeversion="1" />
    <inkscape:path-effect
       effect="spiro"
       id="path-effect1108"
       is_visible="true"
       lpeversion="1" />
    <inkscape:path-effect
       effect="spiro"
       id="path-effect1102"
       is_visible="true"
       lpeversion="1" />
    <inkscape:path-effect
       effect="spiro"
       id="path-effect1098"
       is_visible="true"
       lpeversion="1" />
    <inkscape:path-effect
       effect="spiro"
       id="path-effect1094"
       is_visible="true"
       lpeversion="1" />
    <inkscape:path-effect
       effect="spiro"
       id="path-effect1030"
       is_visible="true"
       lpeversion="1" />
    <inkscape:path-effect
       effect="spiro"
       id="path-effect358"
       is_visible="true"
       lpeversion="1" />
  </defs>
  <g
     inkscape:label="Layer 1"
     inkscape:groupmode="layer"
     id="layer1"
     transform="translate(-80.155595,-106.44823)">
    <g
       aria-label="B"
       id="text3342"
       style="font-weight:bold;font-size:16.9333px;font-family:System-ui;-inkscape-font-specification:'System-ui Bold';stroke-width:0.264583" />
    <g
       aria-label="B"
       id="text3396"
       style="font-weight:bold;font-size:16.9333px;font-family:System-ui;-inkscape-font-specification:'System-ui Bold';stroke-width:0.264583" />
    <g
       id="g3758"
       transform="translate(74.019243,-16.968519)">
      <g
         id="g5563">
        <text
           xml:space="preserve"
           transform="matrix(0.26458333,0,0,0.26458333,6.136352,123.41675)"
           id="text499"
           style="font-weight:bold;font-size:64px;line-height:1.25;font-family:System-ui;-inkscape-font-specification:'System-ui Bold';white-space:pre;shape-inside:url(#rect501);display:inline" />
        <g
           id="g3251">
          <g
             id="g4007">
            <path
               style="fill:none;stroke:#ffffff;stroke-width:1.5875;stroke-linecap:butt;stroke-linejoin:miter;stroke-dasharray:none;stroke-opacity:1"
               d="m 42.670805,155.71802 c -2.497487,5.78909 -6.655977,10.85043 -11.850605,14.42349 -7.081959,4.87124 -16.073013,6.88288 -24.5555932,5.494"
               id="path3756"
               inkscape:original-d="m 42.670805,155.71802 c -4.050924,4.79882 -7.900164,9.61595 -11.850605,14.42349 -3.95044,4.80754 -16.370156,3.66295 -24.5555932,5.494"
               inkscape:path-effect="#path-effect3762" />
            <g
               id="g665">
              <g
                 id="g695">
                <path
                   id="path3754"
                   style="fill:#ffffff;fill-opacity:1;stroke:#00e200;stroke-width:0;stroke-linecap:round;stroke-dasharray:none;stop-color:#000000"
                   d="m 123.14621,53.932095 2.6e-4,32.547053 31.65299,1.23e-4 -2.6e-4,-32.547053 z m 7.80461,15.833214 2.91615,-3.532046 c 1.04605,-1.26697 2.00943,-2.007503 2.89013,-2.221589 0.88406,-0.218161 1.78072,0.06092 2.69059,0.836466 0.47911,0.408382 0.80212,0.860703 0.96903,1.356957 0.16252,0.492506 0.16228,1.005277 -0.001,1.539069 0.57531,-0.370283 1.1902,-0.511843 1.84528,-0.425443 0.65508,0.0864 1.2925,0.393735 1.91227,0.922007 0.94942,0.809265 1.41188,1.709488 1.38674,2.701411 -0.0252,0.991923 -0.53889,2.0949 -1.5412,3.30891 l -3.22391,3.904804 z m 3.66986,-0.88024 2.08346,1.775896 1.07464,-1.301602 c 0.30608,-0.370721 0.45025,-0.726752 0.43251,-1.068088 -0.0177,-0.341336 -0.19803,-0.658124 -0.54087,-0.950359 -0.33846,-0.288487 -0.67464,-0.41193 -1.00854,-0.370323 -0.3383,0.03786 -0.66049,0.242153 -0.96657,0.612874 z m 3.8109,3.248316 2.57796,2.19739 1.14023,-1.381042 c 0.39016,-0.472567 0.57509,-0.91879 0.5548,-1.338656 -0.0169,-0.423945 -0.24298,-0.821374 -0.67813,-1.192287 -0.42637,-0.363422 -0.84259,-0.51691 -1.24865,-0.460462 -0.41046,0.0527 -0.81246,0.317373 -1.20599,0.794015 z"
                   transform="matrix(0.67692496,0.73605204,-0.79416382,0.60770373,0,0)" />
              </g>
            </g>
          </g>
        </g>
      </g>
    </g>
  </g>
</svg>
